<svg width="24" height="24" viewBox="0 0 24 24" fill="none" xmlns="http://www.w3.org/2000/svg">
<path d="M16 13V21" stroke="black" stroke-width="2" stroke-linecap="round" stroke-linejoin="round"/>
<path d="M8 13V21" stroke="black" stroke-width="2" stroke-linecap="round" stroke-linejoin="round"/>
<path d="M12 15V23" stroke="black" stroke-width="2" stroke-linecap="round" stroke-linejoin="round"/>
<path d="M20.0059 16.58C21.0571 16.1196 21.918 15.3115 22.444 14.2915C22.97 13.2715 23.129 12.1016 22.8945 10.9782C22.66 9.85475 22.0461 8.8462 21.1559 8.12182C20.2658 7.39745 19.1535 7.00134 18.0059 6.99999H16.7459C16.4289 5.77251 15.8247 4.63794 14.9832 3.68979C14.1417 2.74164 13.0868 2.00706 11.9057 1.54661C10.7245 1.08615 9.4508 0.913005 8.18957 1.04143C6.92835 1.16986 5.7157 1.59618 4.65159 2.28527C3.58747 2.97436 2.70236 3.90647 2.0692 5.00478C1.43604 6.1031 1.07296 7.33616 1.0099 8.60234C0.946844 9.86852 1.1856 11.1316 1.7065 12.2873C2.22739 13.4431 3.01551 14.4586 4.00589 15.25" stroke="black" stroke-width="2" stroke-linecap="round" stroke-linejoin="round"/>
</svg>
